<svg xmlns="http://www.w3.org/2000/svg" width="48" height="48" fill="none" id="discord"><rect width="48" height="48" fill="#7289DA" rx="24"/><path fill="#fff" d="M36.037 15.78c-2.202-1.762-4.844-2.642-7.633-2.79l-.44.441c2.495.587 4.697 1.762 6.752 3.376a22.345 22.345 0 0 0-8.22-2.495c-.881-.147-1.615-.147-2.496-.147-.88 0-1.615 0-2.495.147a22.345 22.345 0 0 0-8.22 2.495c2.054-1.614 4.256-2.789 6.752-3.376l-.44-.44c-2.79.147-5.432 1.027-7.634 2.789C9.468 20.477 8.147 25.762 8 31.193c2.202 2.348 5.284 3.816 8.514 3.816 0 0 1.027-1.174 1.761-2.202-1.908-.44-3.67-1.468-4.844-3.082 1.028.587 2.055 1.174 3.083 1.614 1.32.588 2.642.881 3.963 1.175 1.174.146 2.349.293 3.523.293s2.349-.147 3.523-.293c1.321-.294 2.642-.587 3.963-1.175 1.028-.44 2.055-1.027 3.083-1.614-1.175 1.614-2.936 2.642-4.844 3.082.734 1.028 1.761 2.202 1.761 2.202 3.23 0 6.312-1.468 8.514-3.816-.147-5.431-1.468-10.716-3.963-15.413ZM19.156 28.55c-1.468 0-2.789-1.32-2.789-2.935s1.321-2.936 2.789-2.936c1.468 0 2.789 1.321 2.789 2.936 0 1.614-1.321 2.935-2.789 2.935Zm9.688 0c-1.468 0-2.789-1.32-2.789-2.935s1.321-2.936 2.789-2.936c1.468 0 2.789 1.321 2.789 2.936 0 1.614-1.321 2.935-2.789 2.935Z"/></svg>